# xmcd
#
# Track frame offsets:
#	150
#	17322
#	39174
#	59103
#	71504
#	82298
#	103081
#	113779
#	129840
#	147112
#	174109
#	183574
#	198018
#	219742
#	259895
#	272620
#	287132
#
# Disc length: 4018
#
# Revision: 3
# Processed by: cddbd v1.5.1PL0 Copyright (c) Steve Scherf et al.
# Submitted via: ExactAudioCopy v0.95a3
# Normalized: r2:DSETVAR1
#
DISCID=f50fb011
DTITLE=Various Artist - Brasil - Cd 7 il grande territorio
DYEAR=2003
DGENRE=MPB
TTITLE0=Milton Nascimento - Cravo e canela
TTITLE1=Gilberto Gil - Eu so quero um xodò
TTITLE2=Rita Lee - Baila comigo (live)
TTITLE3=Tamba Trio - Mas que nada
TTITLE4=Djavan - Alibi
TTITLE5=Toninho Horta, Pat Metheney - Bicycle ride
TTITLE6=Tom Zè - Dulcinéia, popular, brasileira
TTITLE7=Milton Nascimento - Raça (Hasa)
TTITLE8=Sivuca, Rosinha de Valença - Adeus Maria Fulo
TTITLE9=Hermeto Pascoal - Irmâos latinos
TTITLE10=Os mutantes - Panis et circenses
TTITLE11=Rita Lee - Lança perfume (live)
TTITLE12=Eumir Deodato - Skyscrapers
TTITLE13=Airto Moreira, Flora Purim - Paranà live
TTITLE14=Luiz Gonzaga - Asa branca
TTITLE15=Cazuza - Brasil
TTITLE16=Los Indios Tabajares - Maria Elena
EXTD=
EXTT0=
EXTT1=
EXTT2=
EXTT3=
EXTT4=
EXTT5=
EXTT6=
EXTT7=
EXTT8=
EXTT9=
EXTT10=
EXTT11=
EXTT12=
EXTT13=
EXTT14=
EXTT15=
EXTT16=
PLAYORDER=
